<svg width="82" height="63" viewBox="0 0 82 63" fill="none" xmlns="http://www.w3.org/2000/svg">
<path d="M52.5559 54.3827C51.4234 54.3892 50.8831 54.8518 49.9654 54.5065C48.5855 53.6399 46.1316 53.249 44.7518 54.2328C44.3026 54.5325 44.0813 55.8161 43.5606 55.8031C40.0263 55.8031 43.847 46.9419 38.5813 47.0983C37.6701 46.8441 35.0535 47.7954 36.2251 45.9189C35.4636 45.0589 34.4677 45.9255 33.7843 46.4272C31.9032 47.3328 29.4559 46.8768 28.089 45.1697C27.8937 43.9252 27.5162 41.5991 26.8979 40.4263C26.3316 38.9929 27.8938 36.5691 25.4074 36.5039C22.7973 31.324 20.8446 33.181 16.4056 34.66C15.3902 35.1682 14.8434 37.7614 13.457 36.934C12.8257 36.5691 10.0399 35.9436 9.73397 35.09C9.48012 34.1648 8.44521 33.2136 7.7097 32.7379C7.40379 32.3144 7.28012 31.6694 6.69432 31.5977C4.13633 31.8062 5.04106 31.4283 3.32922 30.0665C3.91502 29.2781 3.24461 27.7339 2.93869 26.9325C3.30319 26.0725 4.59195 25.7597 4.07123 24.5804C2.67182 23.3099 1.4807 21.6354 1.38958 19.5634C0.244015 18.1235 1.88425 17.9671 2.97124 17.6413C11.244 12.7807 21.3784 6.66906 30.7446 4.77954C31.1352 9.32742 30.6275 12.1747 36.2316 11.1713C35.9973 8.67586 37.5009 9.24272 39.2387 8.81921C40.9375 8.59768 44.5955 9.79657 46.1512 10.4677C46.4115 11.3668 46.0926 12.6113 47.3163 12.7807C49.1257 12.9306 50.6683 12.077 52.6535 12.0705" stroke="black" stroke-width="2" stroke-linejoin="round"/>
<path d="M52.6523 14.2283V1H54.3936L56.7279 8.00595H56.7658L59.0811 1H60.8413V14.2283H59.0243V6.18203H58.9865L57.1885 11.8645H56.28L54.5009 6.18203H54.463V14.2283H52.6523Z" stroke="#231F20" stroke-miterlimit="10"/>
<path d="M62.1016 14.2283L65.084 1H66.6782L69.6606 14.2283H67.7476L67.183 11.3838H64.5792L64.0146 14.2283H62.1016ZM66.8243 9.5994L65.8877 4.80588H65.8479L64.9113 9.5994H66.8243Z" stroke="#231F20" stroke-miterlimit="10"/>
<path d="M70.293 14.2283V1H73.2065C73.7393 1 74.2114 1.06584 74.6161 1.20412C75.0208 1.34239 75.3917 1.57946 75.7222 1.92844C76.0526 2.27742 76.2819 2.67906 76.4033 3.14656C76.5315 3.61407 76.5922 4.23959 76.5922 5.02973C76.5922 5.62234 76.5585 6.12278 76.491 6.53102C76.4236 6.93927 76.2752 7.32117 76.0459 7.68332C75.7829 8.1179 75.4254 8.45369 74.9803 8.69732C74.5352 8.94095 73.9551 9.05946 73.2268 9.05946H72.2353V14.2218H70.293V14.2283ZM72.2353 2.78442V7.28167H73.1661C73.5572 7.28167 73.8607 7.22899 74.0765 7.11706C74.2924 7.00512 74.4475 6.85366 74.5486 6.64954C74.6498 6.46517 74.7105 6.23473 74.7307 5.96476C74.751 5.6948 74.7577 5.39191 74.7577 5.0561C74.7577 4.74662 74.751 4.4503 74.7375 4.17375C74.724 3.8972 74.67 3.65358 74.5689 3.44288C74.4677 3.23217 74.3126 3.07412 74.1103 2.96218C73.9079 2.85024 73.6179 2.79756 73.2335 2.79756H72.2353V2.78442Z" stroke="#231F20" stroke-miterlimit="10"/>
<path d="M52.0234 29.9764L55.0059 16.748H56.6001L59.5825 29.9764H57.6695L57.1049 27.1319H54.5011L53.9365 29.9764H52.0234ZM56.7462 25.354L55.8096 20.5605H55.7698L54.8332 25.354H56.7462Z" stroke="#231F20" stroke-miterlimit="10"/>
<path d="M52.6523 46.3543V33.126H55.4941C56.1166 33.126 56.6511 33.2182 57.0909 33.4026C57.5307 33.5869 57.8893 33.8371 58.1667 34.1466C58.4441 34.4561 58.6471 34.8116 58.7689 35.2133C58.8907 35.615 58.9516 36.0363 58.9516 36.4643V36.945C58.9516 37.3072 58.9245 37.6101 58.8636 37.8537C58.8095 38.1039 58.7215 38.3146 58.6065 38.5056C58.39 38.8546 58.0584 39.1508 57.6119 39.3945C58.072 39.6052 58.4035 39.9147 58.62 40.3229C58.8365 40.7311 58.9448 41.2908 58.9448 41.9954V42.7394C58.9448 43.9049 58.6538 44.7938 58.0787 45.4127C57.4968 46.0317 56.5767 46.3411 55.3046 46.3411H52.6523V46.3543ZM54.601 34.917V38.5582H55.4806C56.1301 38.5582 56.5631 38.4002 56.7864 38.0841C57.0097 37.7681 57.1179 37.3072 57.1179 36.7014C57.1179 36.1088 56.9962 35.661 56.7458 35.3647C56.4955 35.0684 56.0489 34.917 55.3994 34.917H54.601ZM54.601 40.2241V44.458H55.44C55.8324 44.458 56.1436 44.4053 56.3669 44.2934C56.5902 44.1814 56.7593 44.03 56.8744 43.8258C56.9894 43.6283 57.0571 43.3913 57.0841 43.1213C57.1112 42.8514 57.1247 42.5485 57.1247 42.2324C57.1247 41.8966 57.1044 41.6069 57.0706 41.3566C57.03 41.1064 56.9556 40.8958 56.8405 40.7246C56.712 40.5534 56.5428 40.4217 56.3263 40.3426C56.1098 40.2636 55.8256 40.2241 55.467 40.2241H54.601V40.2241Z" stroke="#231F20" stroke-miterlimit="10"/>
<path d="M60.2109 46.3477V33.126H65.8802V34.9095H62.1139V38.7925H65.3913V40.576H62.1139V44.4589H65.8802V46.3543H60.2109V46.3477Z" stroke="#231F20" stroke-miterlimit="10"/>
<path d="M67.1406 46.3477V33.126H72.8099V34.9095H69.0436V38.7925H72.321V40.576H69.0436V44.4589H72.8099V46.3543H67.1406V46.3477Z" stroke="#231F20" stroke-miterlimit="10"/>
<path d="M74.0703 46.3543V33.126H77.176C79.45 33.126 80.5836 34.4231 80.5836 37.0109C80.5836 37.7878 80.4628 38.4529 80.2146 38.9994C79.9665 39.5459 79.5371 39.9805 78.92 40.3163L80.9994 46.3543H78.9536L77.1559 40.7048H76.0022V46.3543H74.0703V46.3543ZM75.9954 34.917V39.0389H77.0955C77.4376 39.0389 77.7059 38.9928 77.9072 38.9006C78.1084 38.8084 78.2694 38.6768 78.3767 38.499C78.4773 38.3278 78.5444 38.1105 78.5846 37.8603C78.6249 37.61 78.6383 37.3138 78.6383 36.978C78.6383 36.6421 78.6182 36.3524 78.5846 36.0956C78.5444 35.8388 78.4706 35.6215 78.3566 35.4372C78.1151 35.0882 77.659 34.917 76.9949 34.917H75.9954V34.917Z" stroke="#231F20" stroke-miterlimit="10"/>
<path d="M58.9448 58.2849V59.0886C58.9448 59.4904 58.8635 59.8728 58.7077 60.2293C58.5452 60.5923 58.3284 60.9098 58.0507 61.1885C57.773 61.4672 57.4411 61.694 57.0686 61.8561C56.6893 62.0181 56.2896 62.1024 55.8561 62.1024C55.4836 62.1024 55.1111 62.057 54.7318 61.9598C54.3525 61.8626 54.007 61.6941 53.7022 61.4478C53.3974 61.2015 53.1468 60.8904 52.9504 60.508C52.7539 60.1256 52.6523 59.633 52.6523 59.0367V51.8684C52.6523 51.4406 52.7269 51.0452 52.8826 50.6823C53.0384 50.3193 53.2552 50.0018 53.5329 49.7296C53.8106 49.4638 54.1493 49.2499 54.5353 49.1009C54.9214 48.9518 55.3549 48.874 55.8223 48.874C56.7367 48.874 57.4817 49.1592 58.0575 49.736C58.3352 50.0147 58.5587 50.3518 58.7145 50.7342C58.8771 51.1166 58.9516 51.5378 58.9516 51.985V52.7174H57.0008V52.0952C57.0008 51.7323 56.8925 51.4147 56.6757 51.1425C56.459 50.8767 56.1677 50.7406 55.7952 50.7406C55.3143 50.7406 54.9891 50.8832 54.8334 51.1684C54.6708 51.4536 54.5963 51.8165 54.5963 52.2573V58.9136C54.5963 59.2895 54.6843 59.6071 54.8537 59.8663C55.023 60.1191 55.3346 60.2487 55.7816 60.2487C55.9103 60.2487 56.0458 60.2293 56.1948 60.1839C56.3438 60.1386 56.4793 60.0737 56.608 59.9765C56.7231 59.8793 56.818 59.7432 56.8925 59.5747C56.967 59.4062 57.0076 59.1923 57.0076 58.933V58.2914H58.9448V58.2849Z" stroke="#231F20" stroke-miterlimit="10"/>
<path d="M59.582 62.1024L62.3122 48.874H63.7749L66.5112 62.1024H64.756L64.238 59.2578H61.8491L61.3311 62.1024H59.582ZM63.915 57.4734L63.0557 52.6799H63.0192L62.1599 57.4734H63.915Z" stroke="#231F20" stroke-miterlimit="10"/>
<path d="M67.7734 62.1024V48.874H70.3928C70.8718 48.874 71.2963 48.9399 71.6601 49.0781C72.0239 49.2164 72.3574 49.4535 72.6545 49.8025C72.9516 50.1514 73.1577 50.5531 73.273 51.0206C73.3882 51.4881 73.4427 52.1136 73.4427 52.9038C73.4427 53.4964 73.4124 53.9968 73.3457 54.405C73.2851 54.8133 73.1517 55.1952 72.9455 55.5573C72.7091 55.9919 72.3877 56.3277 71.9875 56.5713C71.5873 56.815 71.0659 56.9335 70.411 56.9335H69.5197V62.0958H67.7734V62.1024ZM69.5197 50.6584V55.1557H70.3565C70.7081 55.1557 70.981 55.103 71.175 54.9911C71.369 54.8791 71.5085 54.7277 71.5995 54.5302C71.6904 54.3458 71.745 54.1153 71.7632 53.8454C71.7814 53.5754 71.7874 53.2725 71.7874 52.9367C71.7874 52.6272 71.7814 52.3309 71.7692 52.0544C71.7571 51.7778 71.7086 51.5342 71.6176 51.3235C71.5267 51.1128 71.3872 50.9548 71.2053 50.8428C71.0234 50.7309 70.7627 50.6782 70.4171 50.6782H69.5197V50.6584Z" stroke="#231F20" stroke-miterlimit="10"/>
<path d="M20.1599 21.1458C20.4452 21.1715 20.7304 21.163 21.0097 21.0343C21.4851 20.8199 21.7704 20.2711 21.7882 19.5594C21.7882 19.5251 21.7763 19.4822 21.7585 19.465C21.5564 19.3107 21.3425 19.2421 21.1107 19.2764C20.8136 19.3278 20.5818 19.5508 20.3857 19.8681C20.2075 20.1596 20.0767 20.5027 19.9698 20.8629C19.946 20.94 19.9282 21.0172 19.8984 21.1115C19.9995 21.1287 20.0767 21.1372 20.1599 21.1458Z" stroke="#231F20" stroke-width="0.1" stroke-miterlimit="10"/>
<path d="M24.2659 20.9407C24.1343 20.486 23.9728 20.057 23.7217 19.7138C23.3688 19.2334 22.8964 19.1304 22.4598 19.4565C22.4419 19.4736 22.418 19.5165 22.418 19.5422C22.4239 20.22 22.6751 20.7519 23.1177 20.9922C23.4167 21.1638 23.7336 21.1723 24.0506 21.1466C24.1343 21.138 24.218 21.1209 24.3077 21.1123C24.2958 21.0437 24.2778 20.9922 24.2659 20.9407Z" stroke="#231F20" stroke-width="0.1" stroke-miterlimit="10"/>
<path d="M24.2432 21.9887C24.1972 21.7549 24.1051 21.5276 23.9116 21.3263C23.884 21.2939 23.8471 21.2809 23.7826 21.2809C23.5984 21.2744 23.4234 21.2678 23.2391 21.2484C23.0457 21.2224 22.843 21.1834 22.668 21.1575C22.5943 21.2744 22.5206 21.3977 22.4377 21.5146C22.41 21.5536 22.41 21.5731 22.4469 21.6056C22.5759 21.7354 22.6588 21.8783 22.6495 22.0341C22.6495 22.1056 22.6864 22.1381 22.7601 22.1705C23.2299 22.3719 23.755 22.4108 24.3077 22.4173C24.2801 22.268 24.2709 22.1251 24.2432 21.9887Z" stroke="#231F20" stroke-width="0.1" stroke-miterlimit="10"/>
<path d="M20.4032 22.3725C20.6002 22.3406 20.791 22.2766 20.9572 22.1487C20.9757 22.1359 21.0003 22.1039 21.0003 22.0784C21.0003 21.8993 21.0496 21.7458 21.1481 21.5987C21.1604 21.5859 21.1604 21.5604 21.1542 21.5412C21.0988 21.4133 21.0434 21.2854 20.9819 21.1575C20.7541 21.2534 20.5079 21.2854 20.2555 21.2918C20.2062 21.2918 20.1755 21.311 20.1508 21.3494C19.9538 21.6691 19.9169 22.0336 19.8984 22.4173C20.077 22.4109 20.2432 22.4045 20.4032 22.3725Z" stroke="#231F20" stroke-width="0.1" stroke-miterlimit="10"/>
<path d="M21.777 19.9174C21.6963 20.2861 21.5037 20.5626 21.1931 20.7536C21.1559 20.7733 21.1496 20.7997 21.1621 20.8458C21.2614 21.2408 21.5223 21.5042 21.7956 21.7873C21.9323 21.6227 22.0689 21.4713 22.1932 21.3133C22.2926 21.1816 22.3671 21.0301 22.4106 20.8655C22.423 20.8063 22.4168 20.7799 22.3671 20.747C22.0565 20.5626 21.8702 20.2729 21.7956 19.8976C21.7832 19.9042 21.777 19.9108 21.777 19.9174Z" stroke="#231F20" stroke-width="0.1" stroke-miterlimit="10"/>
<path d="M21.2589 21.7874C21.1654 21.9128 21.1343 22.061 21.1717 22.2263C21.2589 22.574 21.5144 22.8078 21.7886 23.0472C21.8509 22.9902 21.9132 22.9389 21.9693 22.8819C22.1438 22.7166 22.2995 22.5398 22.3743 22.3175C22.4429 22.1237 22.4304 21.9413 22.312 21.7874C22.1375 21.9356 21.9568 22.0838 21.7823 22.232C21.6203 22.0838 21.4396 21.9356 21.2589 21.7874Z" stroke="#231F20" stroke-width="0.1" stroke-miterlimit="10"/>
<path d="M21.8269 23.2637C21.7885 23.3031 21.7846 23.3425 21.7923 23.4081C21.8308 23.7756 21.9615 24.0446 22.1037 24.3071C22.2152 24.1365 22.3498 23.8084 22.3921 23.5787C22.4075 23.5066 22.4113 23.4278 22.419 23.3491C22.419 23.3359 22.4151 23.3032 22.4075 23.2966C22.3382 23.2113 22.269 23.1325 22.196 23.0472C22.1691 23.0866 22.1383 23.1325 22.1076 23.185C22.0768 23.1391 22.0461 23.0866 22.0153 23.0472C21.9499 23.1129 21.8923 23.1981 21.8269 23.2637Z" stroke="#231F20" stroke-width="0.1" stroke-miterlimit="10"/>
<path d="M21.7872 22.9577C21.511 22.6028 21.2743 22.2382 21.1717 21.7874C20.9903 21.8737 20.8088 21.96 20.6273 22.056C20.6036 22.0656 20.58 22.1039 20.58 22.1423C20.4774 22.6603 20.5405 23.1687 20.6352 23.6771C21.0534 23.5236 21.4558 23.3414 21.7872 22.9577Z" stroke="#231F20" stroke-width="0.1" stroke-miterlimit="10"/>
<path d="M22.418 22.9613C22.5825 23.3431 22.7822 23.5244 22.9976 23.6771C23.0132 23.4385 23.0328 23.219 23.0407 22.99C23.0524 22.7132 23.0524 22.4268 23.0211 22.15C23.0172 22.1119 23.0054 22.0737 22.9937 22.0546C22.9036 21.9592 22.8135 21.8828 22.7234 21.7874C22.6764 22.2455 22.555 22.6081 22.418 22.9613Z" stroke="#231F20" stroke-width="0.1" stroke-miterlimit="10"/>
<path d="M21.9509 18.0078C21.9509 18.0348 21.9509 18.0564 21.9509 18.078C21.9509 18.3586 21.9509 18.6393 21.9509 18.9254C21.9509 18.9632 21.9422 18.9793 21.9159 18.9955C21.8634 19.0225 21.8153 19.0711 21.7891 19.1197C21.8853 19.1683 21.9815 19.2114 22.0778 19.26C22.0909 19.2654 22.104 19.2708 22.1128 19.2654C22.2134 19.2168 22.3096 19.1683 22.419 19.1143C22.3752 19.0765 22.3315 19.0279 22.2834 18.9955C22.2571 18.9793 22.2484 18.9632 22.2484 18.9254C22.2484 18.6393 22.2484 18.3587 22.2484 18.0726C22.2484 18.051 22.2484 18.0294 22.2484 18.0078C22.1478 18.0078 22.0515 18.0078 21.9509 18.0078Z" stroke="#231F20" stroke-width="0.1" stroke-miterlimit="10"/>
<path d="M18.952 24.7026C18.8496 24.7284 18.7471 24.7542 18.6447 24.7799C18.5286 24.8121 18.4125 24.825 18.3169 24.7284C18.2144 24.6382 18.2349 24.5288 18.2622 24.4193C18.2827 24.3484 18.3169 24.2776 18.3237 24.2068C18.3783 23.7688 17.9481 23.2794 17.4837 23.2537C17.3471 23.2472 17.2173 23.2343 17.1559 23.0991C17.0876 22.9638 17.1627 22.8544 17.2515 22.7513C17.4973 22.468 17.5247 21.9528 17.2925 21.663C17.2173 21.5664 17.0944 21.4955 16.9783 21.4311C16.8622 21.3667 16.7461 21.3023 16.7461 21.1607C16.7461 21.019 16.8485 20.9481 16.9715 20.8902C17.511 20.6132 17.6408 19.995 17.2583 19.5571C17.1695 19.4605 17.1012 19.3575 17.1559 19.2287C17.2105 19.0934 17.3403 19.0741 17.4769 19.0612C17.9549 19.0162 18.3647 18.5782 18.3305 18.1403C18.3237 18.0437 18.2827 17.9535 18.2622 17.8634C18.2008 17.6251 18.3715 17.4512 18.6037 17.5414C19.0476 17.7152 19.3618 17.5156 19.676 17.2773C19.833 17.1614 19.874 16.9876 19.8808 16.8072C19.8877 16.6784 19.9082 16.5561 20.0516 16.5045C20.1882 16.453 20.2974 16.511 20.4067 16.5947C20.8916 16.9682 21.5336 16.8394 21.8272 16.3178C21.8887 16.2083 21.9707 16.1182 22.1073 16.1182C22.237 16.1182 22.3326 16.1954 22.3736 16.3114C22.5239 16.7493 23.0975 16.8265 23.4595 16.7815C23.5893 16.7621 23.7054 16.6655 23.8146 16.5883C23.9239 16.5174 24.0263 16.4595 24.1561 16.511C24.279 16.5625 24.3064 16.6655 24.32 16.7815C24.3678 17.2516 24.8254 17.638 25.2898 17.6058C25.3991 17.5994 25.5083 17.5543 25.6176 17.535C25.8362 17.4899 25.9932 17.638 25.9454 17.8441C25.9181 17.9471 25.8771 18.0501 25.8703 18.1532C25.8362 18.5847 26.2528 19.0355 26.7103 19.0677C26.8469 19.0741 26.9767 19.087 27.0382 19.2222C27.0996 19.3575 27.0313 19.4669 26.9425 19.57C26.5601 20.0079 26.6899 20.6197 27.2226 20.8902C27.3387 20.9481 27.4548 21.0125 27.4548 21.1542C27.4548 21.3023 27.3455 21.3796 27.2157 21.4311C26.963 21.5342 26.8196 21.7145 26.7855 21.9785C26.7718 22.1009 26.7035 22.2297 26.7308 22.3392C26.7718 22.4937 26.8606 22.6354 26.9562 22.7707C27.0245 22.8737 27.0928 22.9703 27.045 23.0927C26.9903 23.215 26.8742 23.2472 26.7445 23.2537C26.1367 23.2987 25.761 23.8268 25.9318 24.3871C25.9659 24.5094 25.9932 24.6254 25.884 24.7284C25.7747 24.8314 25.6518 24.7992 25.522 24.7606C24.9483 24.5931 24.3678 24.9667 24.32 25.5398C24.3132 25.6558 24.279 25.7652 24.1561 25.8103C24.0332 25.8554 23.9171 25.8296 23.8283 25.7459C23.4936 25.4046 23.1044 25.514 22.7356 25.6364C22.599 25.6815 22.4965 25.836 22.4078 25.9584C22.3258 26.0679 22.2712 26.2031 22.1004 26.1967C21.9433 26.1967 21.8682 26.0872 21.8068 25.9649C21.6907 25.7201 21.4858 25.6171 21.2058 25.5591C20.8643 25.4819 20.5911 25.5269 20.3384 25.7588C20.2769 25.8103 20.1199 25.8361 20.0516 25.8039C19.9696 25.7652 19.9013 25.6493 19.8877 25.5591C19.8262 25.1148 19.4028 24.7155 18.952 24.7026Z" stroke="#231F20" stroke-width="0.1" stroke-miterlimit="10"/>
<path d="M22.1023 25.5669C24.3636 25.5669 26.1968 23.5928 26.1968 21.1575C26.1968 18.7222 24.3636 16.748 22.1023 16.748C19.841 16.748 18.0078 18.7222 18.0078 21.1575C18.0078 23.5928 19.841 25.5669 22.1023 25.5669Z" stroke="#231F20" stroke-width="0.1" stroke-miterlimit="10"/>
</svg>
